<mxfile host="app.diagrams.net" modified="2023-07-09T07:46:30.441Z" agent="Mozilla/5.0 (Windows NT 10.0; Win64; x64) AppleWebKit/537.36 (KHTML, like Gecko) Chrome/114.0.0.0 Safari/537.36 Edg/114.0.1823.67" etag="hHqgaC-eBOtSLDmOEtdk" version="21.6.1" type="github">
  <diagram name="Page-1" id="3vVXND9dQixIn7xKfaHF">
    <mxGraphModel dx="1514" dy="893" grid="1" gridSize="10" guides="1" tooltips="1" connect="1" arrows="1" fold="1" page="1" pageScale="1" pageWidth="850" pageHeight="1100" math="0" shadow="0">
      <root>
        <mxCell id="0" />
        <mxCell id="1" parent="0" />
        <mxCell id="y9tc-nf2DElaeW7gpIOF-1" value="system process-&lt;b&gt;supervisor&lt;/b&gt;" style="rounded=0;whiteSpace=wrap;html=1;" vertex="1" parent="1">
          <mxGeometry x="40" y="100" width="120" height="60" as="geometry" />
        </mxCell>
        <mxCell id="y9tc-nf2DElaeW7gpIOF-2" value="Python env" style="rounded=0;whiteSpace=wrap;html=1;" vertex="1" parent="1">
          <mxGeometry x="330" y="160" width="140" height="30" as="geometry" />
        </mxCell>
        <mxCell id="y9tc-nf2DElaeW7gpIOF-3" value="" style="rounded=0;whiteSpace=wrap;html=1;" vertex="1" parent="1">
          <mxGeometry x="330" y="190" width="140" height="30" as="geometry" />
        </mxCell>
        <mxCell id="y9tc-nf2DElaeW7gpIOF-4" value="" style="rounded=0;whiteSpace=wrap;html=1;" vertex="1" parent="1">
          <mxGeometry x="330" y="220" width="140" height="30" as="geometry" />
        </mxCell>
        <mxCell id="y9tc-nf2DElaeW7gpIOF-5" value="" style="rounded=0;whiteSpace=wrap;html=1;" vertex="1" parent="1">
          <mxGeometry x="330" y="250" width="140" height="30" as="geometry" />
        </mxCell>
        <mxCell id="y9tc-nf2DElaeW7gpIOF-6" value="package-supervisor" style="rounded=0;whiteSpace=wrap;html=1;" vertex="1" parent="1">
          <mxGeometry x="330" y="280" width="140" height="30" as="geometry" />
        </mxCell>
        <mxCell id="y9tc-nf2DElaeW7gpIOF-7" value="" style="endArrow=classic;html=1;rounded=0;exitX=1;exitY=1;exitDx=0;exitDy=0;entryX=0;entryY=0;entryDx=0;entryDy=0;" edge="1" parent="1" source="y9tc-nf2DElaeW7gpIOF-1" target="y9tc-nf2DElaeW7gpIOF-2">
          <mxGeometry width="50" height="50" relative="1" as="geometry">
            <mxPoint x="510" y="470" as="sourcePoint" />
            <mxPoint x="560" y="420" as="targetPoint" />
          </mxGeometry>
        </mxCell>
        <mxCell id="y9tc-nf2DElaeW7gpIOF-8" value="supervisor.service" style="text;html=1;strokeColor=none;fillColor=none;align=center;verticalAlign=middle;whiteSpace=wrap;rounded=0;" vertex="1" parent="1">
          <mxGeometry x="180" y="130" width="130" height="30" as="geometry" />
        </mxCell>
        <mxCell id="y9tc-nf2DElaeW7gpIOF-9" value="supervisor.conf" style="rounded=0;whiteSpace=wrap;html=1;" vertex="1" parent="1">
          <mxGeometry x="80" y="360" width="190" height="60" as="geometry" />
        </mxCell>
        <mxCell id="y9tc-nf2DElaeW7gpIOF-10" value="" style="endArrow=classic;html=1;rounded=0;exitX=0;exitY=1;exitDx=0;exitDy=0;entryX=0;entryY=0;entryDx=0;entryDy=0;" edge="1" parent="1" source="y9tc-nf2DElaeW7gpIOF-6" target="y9tc-nf2DElaeW7gpIOF-9">
          <mxGeometry width="50" height="50" relative="1" as="geometry">
            <mxPoint x="510" y="470" as="sourcePoint" />
            <mxPoint x="560" y="420" as="targetPoint" />
          </mxGeometry>
        </mxCell>
        <mxCell id="y9tc-nf2DElaeW7gpIOF-11" value="configure" style="text;html=1;strokeColor=none;fillColor=none;align=center;verticalAlign=middle;whiteSpace=wrap;rounded=0;" vertex="1" parent="1">
          <mxGeometry x="160" y="300" width="60" height="30" as="geometry" />
        </mxCell>
        <mxCell id="y9tc-nf2DElaeW7gpIOF-14" value="floatlight_celery_beat.ini" style="rounded=0;whiteSpace=wrap;html=1;" vertex="1" parent="1">
          <mxGeometry x="450" y="360" width="180" height="40" as="geometry" />
        </mxCell>
        <mxCell id="y9tc-nf2DElaeW7gpIOF-15" value="floatlight_celery_flower.ini" style="rounded=0;whiteSpace=wrap;html=1;" vertex="1" parent="1">
          <mxGeometry x="450" y="400" width="180" height="40" as="geometry" />
        </mxCell>
        <mxCell id="y9tc-nf2DElaeW7gpIOF-16" value="floatlight_celery_worker.ini" style="rounded=0;whiteSpace=wrap;html=1;" vertex="1" parent="1">
          <mxGeometry x="450" y="440" width="180" height="40" as="geometry" />
        </mxCell>
        <mxCell id="y9tc-nf2DElaeW7gpIOF-17" value="" style="endArrow=classic;html=1;rounded=0;entryX=0;entryY=0;entryDx=0;entryDy=0;" edge="1" parent="1" target="y9tc-nf2DElaeW7gpIOF-15">
          <mxGeometry width="50" height="50" relative="1" as="geometry">
            <mxPoint x="270" y="400" as="sourcePoint" />
            <mxPoint x="320" y="350" as="targetPoint" />
          </mxGeometry>
        </mxCell>
        <mxCell id="y9tc-nf2DElaeW7gpIOF-18" value="reload conf" style="text;html=1;strokeColor=none;fillColor=none;align=center;verticalAlign=middle;whiteSpace=wrap;rounded=0;" vertex="1" parent="1">
          <mxGeometry x="330" y="365" width="100" height="35" as="geometry" />
        </mxCell>
      </root>
    </mxGraphModel>
  </diagram>
</mxfile>
